#!OML:ASF H:\charlestonDancing\Project 1\Capture day 1\Session 1\femaleDancer.ASF
:FULLY-SPECIFIED
:DEGREES
256
root -1.66678 17.6064 5.76237 527.05 -81.1282 -522.415
lowerback 24.4894 -4.48548 0.102041
upperback 7.27797 -6.60406 -2.79651
thorax -5.87522 -3.44855 -1.15802
lowerneck 2.32798 2.571 -1.53722
upperneck -4.16952 3.21643 -3.04331
head -1.66 1.68233 -0.75784
rclavicle 3.73715e-014 9.54166e-015
rhumerus -38.5591 -18.6155 -54.0011
rradius 78.902
rwrist -52.7614
rhand -6.51142 -27.012
rfingers 7.12502
rthumb 19.3407 -56.0702
lclavicle 3.73715e-014 9.54166e-015
lhumerus -15.2462 -8.70725 79.4156
lradius 62.3496
lwrist -9.53675
lhand -28.3385 6.67646
lfingers 7.12502
lthumb -1.71282 36.6493
rfemur -58.8492 16.2737 18.8702
rtibia 80.1874
rfoot -18.0942 -2.99555
rtoes -24.4986
lfemur -25.7793 -1.79646 -23.8317
ltibia 40.9179
lfoot -13.5336 -0.663215
ltoes -11.5675
257
root -1.67373 17.6737 5.77073 524.523 -80.4582 -519.147
lowerback 24.4373 -4.52632 0.507119
upperback 7.33964 -6.5289 -2.39551
thorax -5.77158 -3.41533 -0.982465
lowerneck 1.80469 2.63328 -1.40642
upperneck -4.62788 3.27765 -3.45454
head -1.7066 1.71795 -0.906815
rclavicle 5.40694e-014 -1.74931e-014
rhumerus -37.7855 -18.3081 -54.0679
rradius 78.9205
rwrist -53.1103
rhand -6.34779 -26.8546
rfingers 7.12502
rthumb 19.498 -55.8969
lclavicle 5.40694e-014 -1.74931e-014
lhumerus -19.9499 -5.23348 80.3394
lradius 59.4991
lwrist -9.05664
lhand -27.8182 9.0568
lfingers 7.12502
lthumb -1.21032 39.0331
rfemur -59.1077 16.4078 19.7134
rtibia 86.2101
rfoot -18.5637 -3.32842
rtoes -28.9287
lfemur -26.3159 -1.13858 -22.9157
ltibia 40.5018
lfoot -12.8957 -1.37372
ltoes -11.2
258
root -1.68543 17.724 5.78277 523.858 -79.8178 -517.912
lowerback 24.4614 -4.34514 0.822054
upperback 7.44987 -6.21676 -2.20135
thorax -5.66072 -3.27076 -1.04507
lowerneck 1.35777 2.5588 -0.853549
upperneck -5.15544 3.16634 -3.79632
head -1.78628 1.65982 -1.1054
rclavicle 2.14687e-014 -3.02153e-014
rhumerus -37.8738 -18.305 -53.6397
rradius 79.2857
rwrist -53.7192
rhand -5.87097 -26.5422
rfingers 7.12502
rthumb 19.9564 -55.5375
lclavicle 2.14687e-014 -3.02153e-014
lhumerus -24.398 -2.05099 80.8103
lradius 56.3685
lwrist -8.14388
lhand -28.7856 10.5212
lfingers 7.12502
lthumb -2.1446 40.4902
rfemur -58.9035 16.385 20.2885
rtibia 92.0805
rfoot -19.6359 -3.22584
rtoes -25.4247
lfemur -26.7421 -0.41257 -22.3957
ltibia 40.2335
lfoot -12.4964 -1.80606
ltoes -12.1475
259
root -1.69935 17.7511 5.79568 523.795 -79.0163 -517.356
lowerback 24.5932 -4.02182 1.08839
upperback 7.54435 -5.74323 -2.08284
thorax -5.61719 -3.04843 -1.20083
lowerneck 1.00773 2.47177 -0.331592
upperneck -5.83363 3.04038 -3.82608
head -1.93828 1.58908 -1.20595
rclavicle 4.37326e-014 4.45278e-014
rhumerus -38.3464 -18.3431 -52.9778
rradius 79.9025
rwrist -54.5846
rhand -5.22859 -26.3389
rfingers 7.12502
rthumb 20.5738 -55.2686
lclavicle 4.37326e-014 4.45278e-014
lhumerus -28.8071 1.21107 80.6874
lradius 53.496
lwrist -8.19893
lhand -28.6645 12.1176
lfingers 7.12502
lthumb -2.02773 42.0877
rfemur -58.3974 16.4624 20.8013
rtibia 97.7427
rfoot -20.3095 -2.83712
rtoes -25.4056
lfemur -27.1691 0.408086 -21.9907
ltibia 40.1325
lfoot -12.4534 -2.03344
ltoes -13.0163
260
root -1.7054 17.7398 5.80845 524.61 -78.3604 -517.648
lowerback 24.7337 -3.70121 1.1391
upperback 7.62331 -5.32567 -1.99499
thorax -5.57969 -2.85239 -1.25152
lowerneck 0.682048 2.41758 0.015075
upperneck -6.72092 2.94732 -3.69708
head -2.16835 1.53222 -1.23143
rclavicle -8.74653e-015 -3.18055e-014
rhumerus -38.9758 -18.242 -52.1954
rradius 80.7982
rwrist -55.5968
rhand -4.83269 -26.3491
rfingers 7.12502
rthumb 20.9542 -55.2373
lclavicle -8.74653e-015 -3.18055e-014
lhumerus -33.1911 4.48273 79.9696
lradius 50.8166
lwrist -8.28873
lhand -28.5578 13.4586
lfingers 7.12502
lthumb -1.92468 43.4297
rfemur -57.8416 16.2949 20.975
rtibia 103.139
rfoot -20.6658 -2.22392
rtoes -26.0026
lfemur -27.7485 0.959529 -21.8791
ltibia 40.2481
lfoot -12.8799 -2.14214
ltoes -12.0839
261
root -1.70609 17.7056 5.82464 525.776 -77.8898 -518.373
lowerback 24.8831 -3.37967 1.16012
upperback 7.76716 -4.92497 -1.97008
thorax -5.47921 -2.6667 -1.35125
lowerneck 0.336849 2.35923 0.385689
upperneck -7.7579 2.83528 -3.6018
head -2.44695 1.46036 -1.27385
rclavicle -1.11319e-014 3.65764e-014
rhumerus -39.7691 -18.2215 -51.2457
rradius 81.7718
rwrist -56.6994
rhand -4.73409 -26.3171
rfingers 7.12502
rthumb 21.0489 -55.1947
lclavicle -1.11319e-014 3.65764e-014
lhumerus -37.6208 7.26349 78.8493
lradius 48.4876
lwrist -7.97424
lhand -28.1314 14.4577
lfingers 7.12502
lthumb -1.5128 44.4321
rfemur -57.0038 15.7728 20.7993
rtibia 108.117
rfoot -21.0764 -1.01946
rtoes -24.4537
lfemur -28.377 1.1763 -22.0111
ltibia 40.6074
lfoot -13.6852 -1.95524
ltoes -10.3958
262
root -1.70282 17.6574 5.84436 525.925 -77.373 -518.168
lowerback 24.7966 -3.00171 1.74351
upperback 8.14193 -4.34931 -2.06927
thorax -5.04594 -2.40009 -1.9767
lowerneck 0.0310057 2.19997 0.767326
upperneck -9.03799 2.57875 -3.40097
head -2.82326 1.30585 -1.28606
rclavicle -4.37326e-014 9.54166e-015
rhumerus -40.8068 -18.8492 -50.1583
rradius 82.6216
rwrist -57.8935
rhand -4.42668 -26.3026
rfingers 7.12502
rthumb 21.3442 -55.1471
lclavicle -4.37326e-014 9.54166e-015
lhumerus -41.8182 9.08443 77.465
lradius 46.2659
lwrist -7.35616
lhand -27.747 14.5717
lfingers 7.12502
lthumb -1.14152 44.5484
rfemur -55.7003 15.1881 20.6836
rtibia 112.564
rfoot -21.5694 0.353282
rtoes -22.7561
lfemur -29.0884 1.26389 -21.9563
ltibia 41.2337
lfoot -14.5792 -1.44867
ltoes -9.65396
263
root -1.69581 17.5982 5.86743 526.087 -76.9192 -517.993
lowerback 25.1202 -2.67927 2.04546
upperback 8.19544 -3.87475 -2.04846
thorax -5.13547 -2.17481 -2.252
lowerneck 0.179297 2.16208 0.943112
upperneck -10.2811 2.4863 -3.2259
head -3.27767 1.24054 -1.28153
rclavicle 1.19271e-014 5.40694e-014
rhumerus -42.0693 -18.946 -48.8819
rradius 83.3311
rwrist -59.084
rhand -3.8217 -26.5476
rfingers 7.12502
rthumb 21.9252 -55.3252
lclavicle 1.19271e-014 5.40694e-014
lhumerus -46.6427 10.8766 75.7587
lradius 44.0935
lwrist -6.77508
lhand -26.7306 14.2665
lfingers 7.12502
lthumb -0.159935 44.2462
rfemur -54.1121 14.4291 20.3131
rtibia 116.422
rfoot -21.9103 1.22129
rtoes -25.313
lfemur -29.8832 1.14694 -21.8914
ltibia 41.9795
lfoot -15.3817 -0.909202
ltoes -8.53394
264
root -1.6923 17.5398 5.88951 526.884 -76.4617 -518.391
lowerback 25.5099 -2.3211 2.02944
upperback 8.03226 -3.40614 -1.99832
thorax -5.47508 -1.94942 -2.30784
lowerneck 0.683248 2.18463 0.979437
upperneck -11.3626 2.49486 -3.00764
head -3.75312 1.23169 -1.24435
rclavicle 8.74653e-015 -2.06736e-014
rhumerus -43.581 -18.6907 -47.4902
rradius 83.9692
rwrist -60.2543
rhand -3.17483 -26.5988
rfingers 7.12502
rthumb 22.5462 -55.3023
lclavicle 8.74653e-015 -2.06736e-014
lhumerus -51.7374 12.5957 73.64
lradius 41.7941
lwrist -6.48978
lhand -25.0087 13.6686
lfingers 7.12502
lthumb 1.5032 43.643
rfemur -52.2413 13.6823 19.4683
rtibia 119.425
rfoot -22.713 2.10532
rtoes -27.3583
lfemur -30.801 1.0452 -21.9345
ltibia 42.8373
lfoot -16.0752 -0.336351
ltoes -8.16642
265
root -1.69325 17.4893 5.90226 531.826 -76.0849 -522.948
lowerback 25.7041 -1.68616 0.840502
upperback 7.83647 -2.89086 -2.16619
thorax -5.71853 -1.70068 -1.95433
lowerneck 1.35766 2.19932 1.0068
upperneck -12.291 2.50013 -2.87373
head -4.21737 1.22622 -1.23377
rclavicle -3.65764e-014 2.06736e-014
rhumerus -45.2046 -18.5729 -46.082
rradius 84.5086
rwrist -61.4164
rhand -2.50104 -26.4093
rfingers 7.12502
rthumb 23.1928 -55.0329
lclavicle -3.65764e-014 2.06736e-014
lhumerus -56.4866 14.0228 71.2659
lradius 38.992
lwrist -6.55198
lhand -23.588 13.1005
lfingers 7.12502
lthumb 2.87529 43.0609
rfemur -50.1019 12.6933 17.0222
rtibia 121.532
rfoot -23.5004 3.64627
rtoes -27.2535
lfemur -31.6422 1.12535 -23.0813
ltibia 43.435
lfoot -16.5255 0.42425
ltoes -9.54276
266
root -1.70661 17.4776 5.90298 531.18 -75.5753 -521.078
lowerback 25.2948 -1.26784 1.04701
upperback 7.47446 -2.2388 -1.89196
thorax -5.88132 -1.37123 -1.97311
lowerneck 1.90636 2.16224 1.17033
upperneck -12.8882 2.42646 -3.02245
head -4.54247 1.18924 -1.33159
rclavicle 3.4191e-014 3.26007e-014
rhumerus -46.7885 -18.7047 -44.7678
rradius 84.8638
rwrist -62.4942
rhand -1.79047 -26.2058
rfingers 7.12502
rthumb 23.8743 -54.7419
lclavicle 3.4191e-014 3.26007e-014
lhumerus -60.6503 15.1203 68.709
lradius 35.5695
lwrist -6.9636
lhand -22.8061 13.0023
lfingers 7.12502
lthumb 3.63038 42.9512
rfemur -48.013 12.2797 16.3881
rtibia 122.238
rfoot -22.5131 3.92156
rtoes -23.0822
lfemur -33.0775 1.43908 -22.5318
ltibia 43.7336
lfoot -16.5487 0.785462
ltoes -10.763
267
root -1.72906 17.504 5.8988 532.729 -75.4464 -521.652
lowerback 24.868 -0.7835 0.733512
upperback 7.28433 -1.65891 -1.78966
thorax -5.84248 -1.08096 -1.85852
lowerneck 2.31084 2.074 1.29003
upperneck -13.2383 2.2825 -3.23342
head -4.75383 1.1243 -1.43334
rclavicle 2.8625e-014 4.69132e-014
rhumerus -48.2307 -19.2177 -43.5746
rradius 84.9495
rwrist -63.4008
rhand -1.11055 -25.9804
rfingers 7.12502
rthumb 24.5262 -54.4297
lclavicle 2.8625e-014 4.69132e-014
lhumerus -64.0873 16.1112 65.7347
lradius 31.7238
lwrist -8.18906
lhand -21.8348 13.3529
lfingers 7.12502
lthumb 4.56828 43.2836
rfemur -45.4008 11.5258 14.9051
rtibia 121.772
rfoot -22.8069 3.40485
rtoes -24.0749
lfemur -33.9674 1.66793 -22.7209
ltibia 43.5073
lfoot -16.3423 0.872684
ltoes -11.2849
